<svg id="Layer_1" data-name="Layer 1" xmlns="http://www.w3.org/2000/svg" viewBox="0 0 415.4 79.59"><defs><style>.cls-1{fill:#fff;}</style></defs><path class="cls-1" d="M41.71,36.48c0,9.39-6.81,15.06-18,15.06H11.84V65.46H7.18V21.36H23.69C34.9,21.36,41.71,27,41.71,36.48Zm-4.66,0c0-7.06-4.67-11.09-13.49-11.09H11.84v22H23.56C32.38,47.44,37.05,43.41,37.05,36.48Z"/><path class="cls-1" d="M82,46.24V65.46H77.5V46.69c0-7-3.66-10.59-10-10.59-7.12,0-11.59,4.41-11.59,12V65.46H51.48V18.71H56V38.12c2.46-3.85,6.8-6,12.41-6C76.42,32.07,82,36.73,82,46.24Z"/><path class="cls-1" d="M90.92,48.89c0-9.83,7.18-16.82,16.88-16.82s16.82,7,16.82,16.82S117.5,65.77,107.8,65.77,90.92,58.72,90.92,48.89Zm29.17,0c0-7.75-5.23-12.92-12.29-12.92S95.45,41.14,95.45,48.89s5.3,12.92,12.35,12.92S120.09,56.64,120.09,48.89Z"/><path class="cls-1" d="M151.21,63.44a10.61,10.61,0,0,1-7,2.33c-6.24,0-9.7-3.52-9.7-9.63v-20h-5.93V32.32h5.93V25.07H139v7.25h10.08V36.1H139V55.88c0,3.91,2,6,5.73,6a7.43,7.43,0,0,0,4.92-1.7Z"/><path class="cls-1" d="M154.8,48.89c0-9.83,7.19-16.82,16.89-16.82s16.82,7,16.82,16.82-7.12,16.88-16.82,16.88S154.8,58.72,154.8,48.89Zm29.18,0C184,41.14,178.75,36,171.69,36s-12.35,5.17-12.35,12.92,5.29,12.92,12.35,12.92S184,56.64,184,48.89Z"/><path class="cls-1" d="M228.33,32.32V61.43c0,11.4-5.61,16.57-16.57,16.57-6,0-12-1.83-15.43-5.11l2.26-3.4a19.71,19.71,0,0,0,13,4.54c8.38,0,12.22-3.84,12.22-12V57.77c-2.77,4.22-7.5,6.43-12.92,6.43-9.45,0-16.63-6.62-16.63-16.13s7.18-16,16.63-16c5.55,0,10.34,2.27,13.11,6.61V32.32ZM224,48.07c0-7.18-5.29-12.1-12.6-12.1s-12.53,4.92-12.53,12.1,5.23,12.16,12.53,12.16S224,55.25,224,48.07Z"/><path class="cls-1" d="M257.57,32.07v4.35c-.38,0-.76-.07-1.07-.07-6.94,0-11.16,4.41-11.16,12.22V65.46h-4.47V32.32h4.28v6.49C247.23,34.4,251.46,32.07,257.57,32.07Z"/><path class="cls-1" d="M290.58,44.92V65.46H286.3V60.29c-2,3.41-5.92,5.48-11.41,5.48-7.49,0-12.09-3.9-12.09-9.63,0-5.11,3.27-9.39,12.79-9.39h10.52v-2c0-5.67-3.21-8.76-9.39-8.76a16.88,16.88,0,0,0-11,3.91l-2-3.34a21.06,21.06,0,0,1,13.48-4.47C285.73,32.07,290.58,36.35,290.58,44.92Zm-4.47,10.59V50.09h-10.4c-6.42,0-8.5,2.52-8.5,5.92,0,3.84,3.08,6.24,8.38,6.24C280.63,62.25,284.34,59.85,286.11,55.51Z"/><path class="cls-1" d="M336.32,48.89c0,10.08-7.05,16.88-16.5,16.88a14.45,14.45,0,0,1-12.6-6.55V77.68h-4.48V32.32H307v6.55a14.42,14.42,0,0,1,12.79-6.8C329.27,32.07,336.32,38.87,336.32,48.89Zm-4.47,0C331.85,41.2,326.5,36,319.5,36s-12.35,5.23-12.35,12.92,5.3,12.92,12.35,12.92S331.85,56.64,331.85,48.89Z"/><path class="cls-1" d="M376,46.24V65.46h-4.48V46.69c0-7-3.65-10.59-10-10.59-7.12,0-11.6,4.41-11.6,12V65.46h-4.47V18.71h4.47V38.12c2.46-3.85,6.81-6,12.42-6C370.41,32.07,376,36.73,376,46.24Z"/><path class="cls-1" d="M415.33,32.32,398.76,69.43c-2.77,6.49-6.3,8.57-11,8.57a11.34,11.34,0,0,1-8.07-3l2.08-3.34a8.28,8.28,0,0,0,6.05,2.52c3,0,5-1.38,6.87-5.54l1.45-3.21L381.31,32.32H386l12.48,28.16,12.47-28.16Z"/><path class="cls-1" d="M184,18.28h-10.4l-2.24,5h-2.06l8.54-18.67h1.94l8.54,18.67h-2.08Zm-.72-1.6-4.48-10-4.48,10Z"/><path class="cls-1" d="M203.63,3.47V23.26h-1.81V20.49a6.08,6.08,0,0,1-5.41,2.91,6.81,6.81,0,0,1-7-7.15,6.78,6.78,0,0,1,7-7.12,6.12,6.12,0,0,1,5.33,2.77V3.47Zm-1.86,12.78a5.22,5.22,0,1,0-10.43,0,5.22,5.22,0,1,0,10.43,0Z"/><path class="cls-1" d="M219.51,14.57v8.69h-1.82V21.08c-.85,1.44-2.5,2.32-4.82,2.32-3.18,0-5.13-1.66-5.13-4.08,0-2.16,1.39-4,5.42-4h4.45v-.85c0-2.4-1.36-3.71-4-3.71A7.18,7.18,0,0,0,209,12.43L208.12,11a8.89,8.89,0,0,1,5.71-1.89C217.45,9.13,219.51,10.94,219.51,14.57Zm-1.9,4.48V16.76h-4.4c-2.72,0-3.6,1.06-3.6,2.5,0,1.63,1.31,2.64,3.55,2.64A4.48,4.48,0,0,0,217.61,19.05Z"/><path class="cls-1" d="M247.81,15.13v8.13h-1.89v-8c0-3-1.5-4.48-4-4.48-2.88,0-4.7,1.87-4.7,5.07v7.36H235.3v-8c0-3-1.49-4.48-4.05-4.48-2.86,0-4.7,1.87-4.7,5.07v7.36h-1.89v-14h1.81v2.56a5.67,5.67,0,0,1,5.15-2.66,5,5,0,0,1,5,3,6.08,6.08,0,0,1,5.54-3C245.57,9.13,247.81,11.1,247.81,15.13Z"/><path class="cls-1" d="M286,4.59l-6.29,18.67h-2.08L272.14,7.34l-5.5,15.92h-2.05l-6.3-18.67h2l5.39,16.06,5.57-16.06h1.84l5.5,16.14,5.47-16.14Z"/><path class="cls-1" d="M298.71,14.57v8.69h-1.82V21.08c-.85,1.44-2.51,2.32-4.83,2.32-3.17,0-5.12-1.66-5.12-4.08,0-2.16,1.39-4,5.42-4h4.45v-.85c0-2.4-1.36-3.71-4-3.71a7.16,7.16,0,0,0-4.67,1.65L287.32,11A8.89,8.89,0,0,1,293,9.13C296.65,9.13,298.71,10.94,298.71,14.57Zm-1.9,4.48V16.76h-4.4c-2.72,0-3.6,1.06-3.6,2.5,0,1.63,1.31,2.64,3.55,2.64A4.48,4.48,0,0,0,296.81,19.05Z"/><path class="cls-1" d="M311.24,22.41a4.47,4.47,0,0,1-3,1c-2.64,0-4.1-1.5-4.1-4.08V10.83h-2.51V9.23h2.51V6.17h1.89V9.23h4.27v1.6h-4.27v8.38a2.25,2.25,0,0,0,2.43,2.56,3.15,3.15,0,0,0,2.08-.72Z"/><path class="cls-1" d="M321.7,22.41a4.51,4.51,0,0,1-3,1c-2.64,0-4.11-1.5-4.11-4.08V10.83h-2.51V9.23h2.51V6.17h1.9V9.23h4.26v1.6h-4.26v8.38A2.24,2.24,0,0,0,319,21.77a3.11,3.11,0,0,0,2.08-.72Z"/><path class="cls-1" d="M323.2,21.66l.85-1.49a8.47,8.47,0,0,0,5,1.57c2.66,0,3.76-.9,3.76-2.29,0-3.66-9.1-.77-9.1-6.32,0-2.3,2-4,5.55-4a9.5,9.5,0,0,1,5,1.3L333.38,12a7.19,7.19,0,0,0-4.13-1.2c-2.53,0-3.65,1-3.65,2.32,0,3.79,9.09.94,9.09,6.33,0,2.42-2.13,4-5.79,4A9.31,9.31,0,0,1,323.2,21.66Z"/></svg>