<svg id="Layer_1" data-name="Layer 1" xmlns="http://www.w3.org/2000/svg" viewBox="0 0 415.4 80.18"><path d="M41.71,34.69c0,9.39-6.81,15.06-18,15.06H11.84V63.67H7.18V19.57H23.69C34.9,19.57,41.71,25.24,41.71,34.69Zm-4.66,0c0-7-4.67-11.09-13.49-11.09H11.84V45.66H23.56C32.38,45.66,37.05,41.62,37.05,34.69Z"/><path d="M82,44.46V63.67H77.5V44.9c0-7-3.66-10.59-10-10.59-7.12,0-11.59,4.41-11.59,12V63.67H51.48V16.93H56v19.4c2.46-3.84,6.8-6,12.41-6C76.42,30.28,82,34.94,82,44.46Z"/><path d="M90.92,47.1c0-9.82,7.18-16.82,16.88-16.82s16.82,7,16.82,16.82S117.5,64,107.8,64,90.92,56.93,90.92,47.1Zm29.17,0c0-7.75-5.23-12.91-12.29-12.91S95.45,39.35,95.45,47.1,100.75,60,107.8,60,120.09,54.85,120.09,47.1Z"/><path d="M151.21,61.66a10.67,10.67,0,0,1-7,2.33c-6.24,0-9.7-3.53-9.7-9.64v-20h-5.93V30.53h5.93V23.29H139v7.24h10.08v3.78H139V54.1c0,3.9,2,6,5.73,6a7.39,7.39,0,0,0,4.92-1.71Z"/><path d="M154.8,47.1c0-9.82,7.19-16.82,16.89-16.82s16.82,7,16.82,16.82S181.39,64,171.69,64,154.8,56.93,154.8,47.1Zm29.18,0c0-7.75-5.23-12.91-12.29-12.91s-12.35,5.16-12.35,12.91S164.63,60,171.69,60,184,54.85,184,47.1Z"/><path d="M228.33,30.53V59.64c0,11.41-5.61,16.57-16.57,16.57-6,0-12-1.83-15.43-5.1l2.26-3.4a19.76,19.76,0,0,0,13,4.53c8.38,0,12.22-3.84,12.22-12V56c-2.77,4.22-7.5,6.42-12.92,6.42-9.45,0-16.63-6.61-16.63-16.12s7.18-16,16.63-16c5.55,0,10.34,2.27,13.11,6.62V30.53ZM224,46.29c0-7.19-5.29-12.1-12.6-12.1s-12.53,4.91-12.53,12.1,5.23,12.15,12.53,12.15S224,53.47,224,46.29Z"/><path d="M257.57,30.28v4.35c-.38,0-.76-.06-1.07-.06-6.94,0-11.16,4.41-11.16,12.22V63.67h-4.47V30.53h4.28V37C247.23,32.61,251.46,30.28,257.57,30.28Z"/><path d="M290.58,43.13V63.67H286.3V58.51c-2,3.4-5.92,5.48-11.41,5.48-7.49,0-12.09-3.91-12.09-9.64,0-5.1,3.27-9.39,12.79-9.39h10.52V43c0-5.67-3.21-8.76-9.39-8.76a16.87,16.87,0,0,0-11,3.9l-2-3.33a21,21,0,0,1,13.48-4.48C285.73,30.28,290.58,34.57,290.58,43.13Zm-4.47,10.59V48.3h-10.4c-6.42,0-8.5,2.52-8.5,5.92,0,3.85,3.08,6.24,8.38,6.24C280.63,60.46,284.34,58.07,286.11,53.72Z"/><path d="M336.32,47.1c0,10.08-7.05,16.89-16.5,16.89a14.47,14.47,0,0,1-12.6-6.55V75.9h-4.48V30.53H307v6.56a14.43,14.43,0,0,1,12.79-6.81C329.27,30.28,336.32,37.09,336.32,47.1Zm-4.47,0c0-7.68-5.35-12.91-12.35-12.91s-12.35,5.23-12.35,12.91S312.45,60,319.5,60,331.85,54.85,331.85,47.1Z"/><path d="M376,44.46V63.67h-4.48V44.9c0-7-3.65-10.59-10-10.59-7.12,0-11.6,4.41-11.6,12V63.67h-4.47V16.93h4.47v19.4c2.46-3.84,6.81-6,12.42-6C370.41,30.28,376,34.94,376,44.46Z"/><path d="M415.33,30.53,398.76,67.64c-2.77,6.49-6.3,8.57-11,8.57a11.38,11.38,0,0,1-8.07-3l2.08-3.34a8.28,8.28,0,0,0,6.05,2.52c3,0,5-1.39,6.87-5.55l1.45-3.21L381.31,30.53H386L398.45,58.7l12.47-28.17Z"/><path d="M184,16.49h-10.4l-2.24,5h-2.06l8.54-18.67h1.94l8.54,18.67h-2.08Zm-.72-1.6-4.48-10-4.48,10Z"/><path d="M203.63,1.69V21.48h-1.81V18.7a6.06,6.06,0,0,1-5.41,2.91,6.81,6.81,0,0,1-7-7.15,6.78,6.78,0,0,1,7-7.12,6.11,6.11,0,0,1,5.33,2.78V1.69Zm-1.86,12.77a5.22,5.22,0,1,0-10.43,0,5.22,5.22,0,1,0,10.43,0Z"/><path d="M219.51,12.78v8.7h-1.82V19.29c-.85,1.44-2.5,2.32-4.82,2.32-3.18,0-5.13-1.65-5.13-4.08,0-2.16,1.39-4,5.42-4h4.45V12.7c0-2.4-1.36-3.7-4-3.7A7.13,7.13,0,0,0,209,10.65l-.85-1.42a8.89,8.89,0,0,1,5.71-1.89C217.45,7.34,219.51,9.15,219.51,12.78Zm-1.9,4.48V15h-4.4c-2.72,0-3.6,1.07-3.6,2.51,0,1.62,1.31,2.64,3.55,2.64A4.49,4.49,0,0,0,217.61,17.26Z"/><path d="M247.81,13.34v8.14h-1.89v-8c0-3-1.5-4.48-4-4.48-2.88,0-4.7,1.86-4.7,5.07v7.36H235.3v-8c0-3-1.49-4.48-4.05-4.48-2.86,0-4.7,1.86-4.7,5.07v7.36h-1.89v-14h1.81V10a5.68,5.68,0,0,1,5.15-2.67,5.05,5.05,0,0,1,5,3,6.1,6.1,0,0,1,5.54-3C245.57,7.34,247.81,9.31,247.81,13.34Z"/><path d="M286,2.81l-6.29,18.67h-2.08L272.14,5.55l-5.5,15.93h-2.05l-6.3-18.67h2l5.39,16.05,5.57-16h1.84l5.5,16.13,5.47-16.13Z"/><path d="M298.71,12.78v8.7h-1.82V19.29c-.85,1.44-2.51,2.32-4.83,2.32-3.17,0-5.12-1.65-5.12-4.08,0-2.16,1.39-4,5.42-4h4.45V12.7c0-2.4-1.36-3.7-4-3.7a7.11,7.11,0,0,0-4.67,1.65l-.85-1.42A8.89,8.89,0,0,1,293,7.34C296.65,7.34,298.71,9.15,298.71,12.78Zm-1.9,4.48V15h-4.4c-2.72,0-3.6,1.07-3.6,2.51,0,1.62,1.31,2.64,3.55,2.64A4.49,4.49,0,0,0,296.81,17.26Z"/><path d="M311.24,20.62a4.47,4.47,0,0,1-3,1c-2.64,0-4.1-1.49-4.1-4.08V9.05h-2.51V7.45h2.51V4.38h1.89V7.45h4.27v1.6h-4.27v8.37A2.24,2.24,0,0,0,308.5,20a3.15,3.15,0,0,0,2.08-.72Z"/><path d="M321.7,20.62a4.51,4.51,0,0,1-3,1c-2.64,0-4.11-1.49-4.11-4.08V9.05h-2.51V7.45h2.51V4.38h1.9V7.45h4.26v1.6h-4.26v8.37A2.24,2.24,0,0,0,319,20a3.11,3.11,0,0,0,2.08-.72Z"/><path d="M323.2,19.88l.85-1.5A8.47,8.47,0,0,0,329,20c2.66,0,3.76-.91,3.76-2.3,0-3.65-9.1-.77-9.1-6.32,0-2.29,2-4,5.55-4a9.51,9.51,0,0,1,5,1.31l-.83,1.52A7.12,7.12,0,0,0,329.25,9c-2.53,0-3.65,1-3.65,2.32,0,3.79,9.09.93,9.09,6.32,0,2.43-2.13,4-5.79,4A9.38,9.38,0,0,1,323.2,19.88Z"/></svg>